<svg width="23" height="23" viewBox="0 0 23 23" fill="none" xmlns="http://www.w3.org/2000/svg">
<path fill-rule="evenodd" clip-rule="evenodd" d="M6.92179 1.80739C8.00943 1.75924 8.35621 1.74854 11.1268 1.74854C13.8973 1.74854 14.2441 1.76013 15.3308 1.80739C16.4176 1.85464 17.1593 2.02139 17.8084 2.26303C18.4881 2.51003 19.1047 2.89612 19.6146 3.39546C20.1339 3.88499 20.5345 4.47706 20.7904 5.13155C21.0426 5.75573 21.215 6.46907 21.2651 7.51233C21.3152 8.56005 21.3263 8.89354 21.3263 11.557C21.3263 14.2213 21.3143 14.5548 21.2651 15.6007C21.216 16.644 21.0426 17.3573 20.7904 17.9815C20.5344 18.6361 20.1332 19.2291 19.6146 19.7194C19.1047 20.2187 18.4881 20.6039 17.8084 20.85C17.1593 21.0926 16.4176 21.2584 15.3327 21.3066C14.2441 21.3547 13.8973 21.3654 11.1268 21.3654C8.35621 21.3654 8.00943 21.3538 6.92179 21.3066C5.83693 21.2593 5.09515 21.0926 4.44608 20.85C3.76542 20.6039 3.14872 20.218 2.63891 19.7194C2.12002 19.2295 1.71847 18.6368 1.46226 17.9824C1.21098 17.3582 1.03851 16.6449 0.988443 15.6016C0.938373 14.5539 0.927246 14.2204 0.927246 11.557C0.927246 8.89264 0.9393 8.55916 0.988443 7.51411C1.03759 6.46907 1.21098 5.75573 1.46226 5.13155C1.71884 4.47714 2.1207 3.88438 2.63984 3.39457C3.14893 2.89568 3.76501 2.50953 4.44516 2.26303C5.09422 2.02139 5.836 1.85554 6.92086 1.80739H6.92179ZM15.2483 3.5729C14.1727 3.52565 13.8501 3.51584 11.1268 3.51584C8.4035 3.51584 8.08083 3.52565 7.00524 3.5729C6.01032 3.6166 5.47067 3.77621 5.11091 3.91085C4.63524 4.08918 4.29495 4.30051 3.93796 4.64381C3.59956 4.9604 3.33914 5.34581 3.17578 5.77178C3.03577 6.11775 2.86979 6.6367 2.82436 7.59347C2.77522 8.62782 2.76502 8.93812 2.76502 11.557C2.76502 14.1758 2.77522 14.4861 2.82436 15.5205C2.86979 16.4772 3.03577 16.9962 3.17578 17.3422C3.33897 17.7675 3.59952 18.1536 3.93796 18.4701C4.26713 18.7956 4.66862 19.0462 5.11091 19.2031C5.47067 19.3377 6.01032 19.4973 7.00524 19.541C8.08083 19.5883 8.40257 19.5981 11.1268 19.5981C13.851 19.5981 14.1727 19.5883 15.2483 19.541C16.2432 19.4973 16.7829 19.3377 17.1426 19.2031C17.6183 19.0248 17.9586 18.8134 18.3156 18.4701C18.654 18.1536 18.9146 17.7675 19.0778 17.3422C19.2178 16.9962 19.3838 16.4772 19.4292 15.5205C19.4783 14.4861 19.4885 14.1758 19.4885 11.557C19.4885 8.93812 19.4783 8.62782 19.4292 7.59347C19.3838 6.6367 19.2178 6.11775 19.0778 5.77178C18.8923 5.31435 18.6726 4.9871 18.3156 4.64381C17.9864 4.31841 17.5856 4.06797 17.1426 3.91085C16.7829 3.77621 16.2432 3.6166 15.2483 3.5729V3.5729ZM9.82402 14.5806C10.5516 14.8719 11.3617 14.9112 12.1161 14.6919C12.8704 14.4725 13.5222 14.0081 13.96 13.378C14.3979 12.7479 14.5947 11.9911 14.5168 11.237C14.4389 10.4828 14.0911 9.77805 13.5329 9.24307C13.1771 8.90109 12.7468 8.63924 12.2731 8.47636C11.7994 8.31348 11.2941 8.25363 10.7934 8.30112C10.2928 8.34861 9.80932 8.50225 9.37784 8.75098C8.94635 8.99972 8.57758 9.33736 8.29808 9.7396C8.01857 10.1418 7.83529 10.5987 7.76141 11.0772C7.68753 11.5558 7.72491 12.0441 7.87085 12.5071C8.01678 12.97 8.26765 13.3962 8.60538 13.7547C8.94311 14.1133 9.35931 14.3953 9.82402 14.5806ZM7.41971 7.99205C7.90653 7.5239 8.48447 7.15254 9.12053 6.89918C9.75659 6.64582 10.4383 6.51541 11.1268 6.51541C11.8152 6.51541 12.497 6.64582 13.133 6.89918C13.7691 7.15254 14.347 7.5239 14.8338 7.99205C15.3207 8.4602 15.7068 9.01598 15.9703 9.62765C16.2338 10.2393 16.3694 10.8949 16.3694 11.557C16.3694 12.219 16.2338 12.8746 15.9703 13.4863C15.7068 14.098 15.3207 14.6537 14.8338 15.1219C13.8507 16.0674 12.5172 16.5985 11.1268 16.5985C9.73636 16.5985 8.40289 16.0674 7.41971 15.1219C6.43654 14.1764 5.88419 12.8941 5.88419 11.557C5.88419 10.2199 6.43654 8.93753 7.41971 7.99205V7.99205ZM17.5321 7.26623C17.6527 7.15679 17.7493 7.02519 17.8161 6.87922C17.8829 6.73324 17.9186 6.57586 17.921 6.4164C17.9234 6.25693 17.8925 6.09862 17.8302 5.95083C17.7678 5.80305 17.6753 5.6688 17.558 5.55603C17.4407 5.44325 17.3011 5.35426 17.1475 5.2943C16.9938 5.23434 16.8292 5.20465 16.6633 5.20697C16.4975 5.2093 16.3339 5.2436 16.1821 5.30784C16.0303 5.37207 15.8934 5.46495 15.7796 5.58096C15.5583 5.80658 15.4371 6.10626 15.4418 6.4164C15.4465 6.72653 15.5767 7.02269 15.8048 7.24201C16.0329 7.46133 16.3408 7.58654 16.6633 7.59106C16.9858 7.59558 17.2975 7.47906 17.5321 7.26623V7.26623Z" fill="white"/>
</svg>
