<svg width="80" height="68" viewBox="0 0 80 68" fill="none" xmlns="http://www.w3.org/2000/svg">
<g clip-path="url(#clip0_6_195)">
<path d="M36.9231 39.9995V58.4611C36.9231 61.0252 36.0256 63.2046 34.2308 64.9995C32.4359 66.7944 30.2564 67.6918 27.6923 67.6918H9.23077C6.66667 67.6918 4.48718 66.7944 2.69231 64.9995C0.897436 63.2046 0 61.0252 0 58.4611V24.6149C0 21.2816 0.649038 18.1005 1.94712 15.0716C3.24519 12.0428 5 9.42259 7.21154 7.21105C9.42308 4.99951 12.0433 3.2447 15.0721 1.94663C18.101 0.64855 21.2821 -0.000488281 24.6154 -0.000488281H27.6923C28.5256 -0.000488281 29.2468 0.303999 29.8558 0.912973C30.4647 1.52195 30.7692 2.2431 30.7692 3.07643V9.23028C30.7692 10.0636 30.4647 10.7848 29.8558 11.3937C29.2468 12.0027 28.5256 12.3072 27.6923 12.3072H24.6154C21.2179 12.3072 18.3173 13.5091 15.9135 15.913C13.5096 18.3168 12.3077 21.2175 12.3077 24.6149V26.1534C12.3077 27.4354 12.7564 28.5252 13.6538 29.4226C14.5513 30.32 15.641 30.7687 16.9231 30.7687H27.6923C30.2564 30.7687 32.4359 31.6662 34.2308 33.4611C36.0256 35.2559 36.9231 37.4354 36.9231 39.9995ZM80 39.9995V58.4611C80 61.0252 79.1026 63.2046 77.3077 64.9995C75.5128 66.7944 73.3333 67.6918 70.7692 67.6918H52.3077C49.7436 67.6918 47.5641 66.7944 45.7692 64.9995C43.9744 63.2046 43.0769 61.0252 43.0769 58.4611V24.6149C43.0769 21.2816 43.726 18.1005 45.024 15.0716C46.3221 12.0428 48.0769 9.42259 50.2885 7.21105C52.5 4.99951 55.1202 3.2447 58.149 1.94663C61.1779 0.64855 64.359 -0.000488281 67.6923 -0.000488281H70.7692C71.6026 -0.000488281 72.3237 0.303999 72.9327 0.912973C73.5417 1.52195 73.8462 2.2431 73.8462 3.07643V9.23028C73.8462 10.0636 73.5417 10.7848 72.9327 11.3937C72.3237 12.0027 71.6026 12.3072 70.7692 12.3072H67.6923C64.2949 12.3072 61.3942 13.5091 58.9904 15.913C56.5865 18.3168 55.3846 21.2175 55.3846 24.6149V26.1534C55.3846 27.4354 55.8333 28.5252 56.7308 29.4226C57.6282 30.32 58.7179 30.7687 60 30.7687H70.7692C73.3333 30.7687 75.5128 31.6662 77.3077 33.4611C79.1026 35.2559 80 37.4354 80 39.9995Z" fill="#2A9D8F"/>
</g>
<defs>
<clipPath id="clip0_6_195">
<rect width="80" height="67.6923" fill="white" transform="translate(0 -0.000488281)"/>
</clipPath>
</defs>
</svg>
