<svg width="23" height="22" viewBox="0 0 23 22" fill="none" xmlns="http://www.w3.org/2000/svg">
<path d="M22.6692 4.68623C21.8949 5.01615 21.0632 5.23907 20.1888 5.33983C21.091 4.82069 21.766 4.00362 22.0878 3.04109C21.2402 3.52526 20.3125 3.86606 19.345 4.04868C18.6945 3.38069 17.8328 2.93794 16.8937 2.78916C15.9547 2.64039 14.9909 2.79391 14.1518 3.22589C13.3128 3.65787 12.6456 4.34415 12.2537 5.17817C11.8619 6.01219 11.7673 6.94729 11.9847 7.8383C10.2672 7.75537 8.58698 7.32608 7.05315 6.57828C5.51932 5.83048 4.16614 4.78089 3.08143 3.49762C2.71054 4.11288 2.49727 4.82622 2.49727 5.58593C2.49686 6.26984 2.67199 6.94328 3.00714 7.54649C3.34228 8.1497 3.82707 8.66403 4.41849 9.04385C3.7326 9.02286 3.06184 8.84463 2.46204 8.524V8.5775C2.46197 9.53671 2.807 10.4664 3.43858 11.2088C4.07017 11.9513 4.9494 12.4607 5.9271 12.6507C5.29082 12.8163 4.62373 12.8407 3.97621 12.722C4.25205 13.5474 4.78938 14.2691 5.51297 14.7862C6.23655 15.3033 7.11017 15.5898 8.01151 15.6057C6.48143 16.7608 4.59178 17.3873 2.64656 17.3846C2.30198 17.3847 1.9577 17.3653 1.61548 17.3266C3.58999 18.5475 5.88847 19.1954 8.2359 19.1929C16.1823 19.1929 20.5263 12.8638 20.5263 7.37463C20.5263 7.1963 20.5217 7.01618 20.5134 6.83784C21.3583 6.2502 22.0877 5.52253 22.6673 4.6889L22.6692 4.68623V4.68623Z" fill="white"/>
</svg>
