<svg width="24" height="23" viewBox="0 0 24 23" fill="none" xmlns="http://www.w3.org/2000/svg">
<g clip-path="url(#clip0_6_290)">
<path fill-rule="evenodd" clip-rule="evenodd" d="M17.1055 13.6811C16.8292 13.5482 15.4745 12.908 15.2223 12.8188C14.9701 12.7305 14.7865 12.6868 14.602 12.9526C14.4184 13.2165 13.8908 13.8139 13.7304 13.9905C13.569 14.1679 13.4086 14.1893 13.1332 14.0573C12.8578 13.9236 11.9695 13.6445 10.9171 12.7421C10.0984 12.0395 9.54484 11.1719 9.38443 10.9062C9.22402 10.6413 9.36681 10.4978 9.50497 10.3658C9.62922 10.2472 9.78036 10.0564 9.91851 9.90213C10.0567 9.74698 10.1021 9.63641 10.1939 9.45897C10.2866 9.28242 10.2403 9.12816 10.1707 8.9953C10.1021 8.86244 9.55133 7.55791 9.32138 7.02737C9.09792 6.51109 8.87074 6.58153 8.70199 6.57261C8.54065 6.56548 8.35706 6.5637 8.17347 6.5637C7.98988 6.5637 7.69131 6.62968 7.4391 6.8954C7.18597 7.16023 6.47478 7.80134 6.47478 9.10586C6.47478 10.4095 7.46135 11.6694 7.59951 11.8469C7.73767 12.0234 9.54206 14.7002 12.3061 15.8478C12.9645 16.1207 13.4772 16.2839 13.8769 16.4051C14.537 16.6075 15.1379 16.579 15.6126 16.5103C16.1412 16.4345 17.2427 15.8692 17.4727 15.2504C17.7017 14.6316 17.7017 14.101 17.6331 13.9905C17.5645 13.8799 17.3809 13.8139 17.1045 13.6811H17.1055ZM12.078 20.2821H12.0743C10.4326 20.2824 8.82102 19.858 7.4085 19.0534L7.0747 18.8626L3.60501 19.7382L4.53131 16.4854L4.31341 16.1519C3.39558 14.7469 2.90986 13.1209 2.91236 11.4617C2.91422 6.60204 7.02556 2.64835 12.0817 2.64835C14.5296 2.64835 16.831 3.56677 18.5612 5.23242C19.4146 6.04972 20.091 7.02163 20.5513 8.09194C21.0116 9.16224 21.2466 10.3097 21.2428 11.4679C21.2409 16.3275 17.1296 20.2821 12.078 20.2821V20.2821ZM19.8779 3.96714C18.8563 2.9782 17.6407 2.19407 16.3016 1.66019C14.9626 1.12631 13.5267 0.853299 12.0771 0.85697C6.00004 0.85697 1.05234 5.61406 1.05049 11.4608C1.04767 13.3215 1.55525 15.15 2.522 16.7618L0.957764 22.2572L6.80302 20.7824C8.41999 21.6296 10.232 22.0735 12.0734 22.0735H12.078C18.1551 22.0735 23.1028 17.3164 23.1047 11.4688C23.1091 10.0754 22.8263 8.69489 22.2724 7.40725C21.7185 6.11961 20.9047 4.95036 19.8779 3.96714" fill="white"/>
</g>
<defs>
<clipPath id="clip0_6_290">
<rect width="22.2535" height="21.4002" fill="white" transform="translate(0.957764 0.856934)"/>
</clipPath>
</defs>
</svg>
